<mxfile host="app.diagrams.net" modified="2024-07-19T14:33:26.227Z" agent="Mozilla/5.0 (Windows NT 10.0; Win64; x64) AppleWebKit/537.36 (KHTML, like Gecko) Chrome/126.0.0.0 Safari/537.36" etag="KB_8gcsxg4W3NGUUCwKo" version="24.7.2" type="github">
  <diagram name="Сторінка-1" id="xcOiPEdLXPSDtQrs34Zi">
    <mxGraphModel dx="1018" dy="589" grid="1" gridSize="10" guides="1" tooltips="1" connect="1" arrows="1" fold="1" page="1" pageScale="1" pageWidth="827" pageHeight="1169" math="0" shadow="0">
      <root>
        <mxCell id="0" />
        <mxCell id="1" parent="0" />
        <mxCell id="savlvpQ5eppztg5KY2Nu-1" value="Text" style="text;html=1;align=center;verticalAlign=middle;whiteSpace=wrap;rounded=0;fontSize=16;" vertex="1" parent="1">
          <mxGeometry x="490" y="390" width="60" height="30" as="geometry" />
        </mxCell>
      </root>
    </mxGraphModel>
  </diagram>
</mxfile>
